<svg width="30" height="20" viewBox="0 0 30 20" fill="none" xmlns="http://www.w3.org/2000/svg">
<g filter="url(#filter0_d_131_58)">
<path d="M3 7C2.44772 7 2 7.44772 2 8C2 8.55228 2.44772 9 3 9V7ZM27.7071 8.70711C28.0976 8.31658 28.0976 7.68342 27.7071 7.29289L21.3431 0.928932C20.9526 0.538408 20.3195 0.538408 19.9289 0.928932C19.5384 1.31946 19.5384 1.95262 19.9289 2.34315L25.5858 8L19.9289 13.6569C19.5384 14.0474 19.5384 14.6805 19.9289 15.0711C20.3195 15.4616 20.9526 15.4616 21.3431 15.0711L27.7071 8.70711ZM3 9H27V7H3V9Z" fill="black"/>
</g>
<defs>
<filter id="filter0_d_131_58" x="0" y="0.636047" width="30" height="18.7279" filterUnits="userSpaceOnUse" color-interpolation-filters="sRGB">
<feFlood flood-opacity="0" result="BackgroundImageFix"/>
<feColorMatrix in="SourceAlpha" type="matrix" values="0 0 0 0 0 0 0 0 0 0 0 0 0 0 0 0 0 0 127 0" result="hardAlpha"/>
<feOffset dy="2"/>
<feGaussianBlur stdDeviation="1"/>
<feComposite in2="hardAlpha" operator="out"/>
<feColorMatrix type="matrix" values="0 0 0 0 0 0 0 0 0 0 0 0 0 0 0 0 0 0 0.4 0"/>
<feBlend mode="normal" in2="BackgroundImageFix" result="effect1_dropShadow_131_58"/>
<feBlend mode="normal" in="SourceGraphic" in2="effect1_dropShadow_131_58" result="shape"/>
</filter>
</defs>
</svg>
