<svg width="30" height="30" viewBox="0 0 30 30" fill="none" xmlns="http://www.w3.org/2000/svg">
<path d="M7.45591 3.92037C6.60813 4.14753 5.83508 4.59385 5.21447 5.21447C4.59385 5.83508 4.14753 6.60813 3.92037 7.4559" stroke="#914C97" stroke-width="2.5" stroke-linecap="round"/>
<path d="M22.5441 3.92037C23.3919 4.14753 24.1649 4.59385 24.7855 5.21447C25.4061 5.83508 25.8525 6.60813 26.0796 7.4559" stroke="#914C97" stroke-width="2.5" stroke-linecap="round"/>
<path fill-rule="evenodd" clip-rule="evenodd" d="M15 25C20.5228 25 25 20.5228 25 15C25 9.47715 20.5228 5 15 5C9.47715 5 5 9.47715 5 15C5 20.5228 9.47715 25 15 25ZM16.25 9.99998C16.25 9.30963 15.6904 8.74998 15 8.74998C14.3096 8.74998 13.75 9.30963 13.75 9.99998V14.6875C13.75 15.5504 14.4496 16.25 15.3125 16.25H18.75C19.4404 16.25 20 15.6903 20 15C20 14.3096 19.4404 13.75 18.75 13.75H16.25V9.99998Z" fill="#914C97"/>
</svg>
