<svg width="1920" height="276" viewBox="0 0 1920 276" fill="none" xmlns="http://www.w3.org/2000/svg">
<g filter="url(#filter0_i_214_140)">
<path d="M304 57.7371C161.5 93.7369 83.4855 142.067 0 184.234V274H1920V86.7373C1797 57.7371 1649.64 97.0723 1526 150.237C1309.72 243.237 1291.5 126.399 981 36.2355C670.5 -53.9277 327.324 51.8447 304 57.7371Z" fill="#DBBFDD"/>
</g>
<g filter="url(#filter1_i_214_140)">
<path d="M304 86.9715C161.5 122.971 83.4855 171.301 0 213.468V274.5H1920V115.972C1797 86.9715 1649.64 126.307 1526 179.472C1309.72 272.472 1291.5 155.633 981 65.4698C670.5 -24.6934 327.324 81.0791 304 86.9715Z" fill="#C397C7"/>
</g>
<path d="M304 116.206C161.5 152.206 83.4855 200.536 0 242.702V276H1920V145.206C1797 116.206 1649.64 155.541 1526 208.706C1309.72 301.706 1291.5 184.867 981 94.7042C670.5 4.54101 327.324 110.313 304 116.206Z" fill="#A06AA5"/>
<defs>
<filter id="filter0_i_214_140" x="0" y="0" width="1920" height="284" filterUnits="userSpaceOnUse" color-interpolation-filters="sRGB">
<feFlood flood-opacity="0" result="BackgroundImageFix"/>
<feBlend mode="normal" in="SourceGraphic" in2="BackgroundImageFix" result="shape"/>
<feColorMatrix in="SourceAlpha" type="matrix" values="0 0 0 0 0 0 0 0 0 0 0 0 0 0 0 0 0 0 127 0" result="hardAlpha"/>
<feOffset dy="10"/>
<feGaussianBlur stdDeviation="10"/>
<feComposite in2="hardAlpha" operator="arithmetic" k2="-1" k3="1"/>
<feColorMatrix type="matrix" values="0 0 0 0 0 0 0 0 0 0 0 0 0 0 0 0 0 0 0.2 0"/>
<feBlend mode="normal" in2="shape" result="effect1_innerShadow_214_140"/>
</filter>
<filter id="filter1_i_214_140" x="0" y="29.2344" width="1920" height="255.266" filterUnits="userSpaceOnUse" color-interpolation-filters="sRGB">
<feFlood flood-opacity="0" result="BackgroundImageFix"/>
<feBlend mode="normal" in="SourceGraphic" in2="BackgroundImageFix" result="shape"/>
<feColorMatrix in="SourceAlpha" type="matrix" values="0 0 0 0 0 0 0 0 0 0 0 0 0 0 0 0 0 0 127 0" result="hardAlpha"/>
<feOffset dy="10"/>
<feGaussianBlur stdDeviation="10"/>
<feComposite in2="hardAlpha" operator="arithmetic" k2="-1" k3="1"/>
<feColorMatrix type="matrix" values="0 0 0 0 0 0 0 0 0 0 0 0 0 0 0 0 0 0 0.2 0"/>
<feBlend mode="normal" in2="shape" result="effect1_innerShadow_214_140"/>
</filter>
</defs>
</svg>
