<svg width="276" height="235" viewBox="0 0 276 235" fill="none" xmlns="http://www.w3.org/2000/svg">
<path d="M93 128L92.4717 130.444L93 128ZM68 95L65.5016 95.088L68 95ZM116.725 187.953L114.887 186.259L116.725 187.953ZM227.5 69.6058L229.22 71.4201L229.196 71.4432L229.171 71.4656L227.5 69.6058ZM271.277 1.85663C271.908 0.62878 273.416 0.145315 274.643 0.776781C275.871 1.40825 276.355 2.91552 275.723 4.14337L271.277 1.85663ZM141.393 126L142.17 128.376L141.393 126ZM273.366 8.6868C272.725 9.90992 271.214 10.3822 269.991 9.74159C268.768 9.10102 268.296 7.59019 268.936 6.36707L273.366 8.6868ZM264.158 15.3032C264.821 14.0917 266.34 13.6465 267.551 14.3088C268.763 14.9712 269.208 16.4902 268.546 17.7017L264.158 15.3032ZM263.537 26.6264C262.846 27.8221 261.317 28.2317 260.121 27.5413C258.926 26.8509 258.516 25.3219 259.207 24.1262L263.537 26.6264ZM254.033 32.7874C254.76 31.6138 256.301 31.2522 257.475 31.9796C258.648 32.707 259.01 34.2481 258.283 35.4216L254.033 32.7874ZM252.689 44.0506C251.912 45.1919 250.357 45.4874 249.215 44.7105C248.074 43.9335 247.779 42.3784 248.556 41.2371L252.689 44.0506ZM242.691 49.3604C243.533 48.266 245.103 48.0612 246.197 48.903C247.292 49.7448 247.496 51.3144 246.655 52.4089L242.691 49.3604ZM240.058 60.3857C239.139 61.4166 237.559 61.5077 236.528 60.5893C235.497 59.6708 235.406 58.0905 236.324 57.0596L240.058 60.3857ZM229.41 64.2939C230.394 63.3257 231.977 63.3387 232.945 64.323C233.914 65.3072 233.901 66.8901 232.916 67.8584L229.41 64.2939ZM225.274 74.918C224.235 75.8267 222.655 75.7206 221.747 74.681C220.838 73.6414 220.944 72.062 221.984 71.1534L225.274 74.918ZM214.15 77.8224C215.213 76.9409 216.789 77.0879 217.67 78.1506C218.552 79.2133 218.405 80.7894 217.342 81.6709L214.15 77.8224ZM209.242 88.2188C208.157 89.0732 206.585 88.8866 205.731 87.8021C204.877 86.7175 205.063 85.1456 206.148 84.2912L209.242 88.2188ZM197.985 90.555C199.092 89.7286 200.658 89.9553 201.485 91.0613C202.311 92.1674 202.084 93.734 200.978 94.5604L197.985 90.555ZM192.548 100.685C191.42 101.481 189.86 101.212 189.064 100.084C188.268 98.9564 188.537 97.3966 189.665 96.6004L192.548 100.685ZM181.183 102.403C182.334 101.641 183.885 101.957 184.647 103.108C185.409 104.259 185.094 105.811 183.942 106.573L181.183 102.403ZM175.141 112.187C173.964 112.909 172.425 112.54 171.703 111.363C170.981 110.186 171.351 108.647 172.528 107.925L175.141 112.187ZM163.686 113.102C164.893 112.43 166.415 112.864 167.086 114.071C167.757 115.278 167.323 116.8 166.117 117.471L163.686 113.102ZM156.822 122.326C155.58 122.929 154.084 122.411 153.481 121.169C152.878 119.927 153.395 118.431 154.637 117.828L156.822 122.326ZM145.351 121.921C146.637 121.419 148.087 122.054 148.589 123.34C149.091 124.626 148.456 126.076 147.17 126.578L145.351 121.921ZM136.134 130.148C134.798 130.495 133.433 129.693 133.086 128.356C132.739 127.02 133.541 125.655 134.878 125.308L136.134 130.148ZM123.18 127.497C124.552 127.342 125.79 128.329 125.945 129.701C126.1 131.073 125.113 132.311 123.741 132.466L123.18 127.497ZM111.12 132.933C109.741 132.882 108.664 131.721 108.716 130.342C108.767 128.962 109.927 127.885 111.307 127.937L111.12 132.933ZM99.4336 126.693C100.796 126.92 101.716 128.208 101.489 129.57C101.262 130.931 99.9736 131.852 98.6117 131.625L99.4336 126.693ZM86.6988 128.757C85.407 128.269 84.7549 126.827 85.2422 125.535C85.7296 124.243 87.172 123.591 88.4638 124.079L86.6988 128.757ZM79.6924 118.764C80.7058 119.702 80.7671 121.283 79.8293 122.297C78.8914 123.31 77.3097 123.371 76.2964 122.434L79.6924 118.764ZM69.2179 112.492C68.6485 111.234 69.2065 109.753 70.4643 109.184C71.7221 108.614 73.2034 109.172 73.7729 110.43L69.2179 112.492ZM70.9547 100.277C71.1449 101.645 70.1906 102.908 68.823 103.098C67.4555 103.288 66.1926 102.334 66.0024 100.966L70.9547 100.277ZM65.9314 89.8704C66.2083 88.5177 67.5293 87.6456 68.8819 87.9225C70.2346 88.1994 71.1067 89.5205 70.8298 90.8731L65.9314 89.8704ZM74.2447 83.492C73.4173 84.5973 71.8505 84.8226 70.7451 83.9951C69.6398 83.1677 69.4145 81.6009 70.242 80.4956L74.2447 83.492ZM77.471 73.5431C78.5927 72.738 80.1546 72.9946 80.9597 74.1163C81.7648 75.2379 81.5082 76.7999 80.3866 77.605L77.471 73.5431ZM88.0041 73.3939C86.7272 73.9191 85.2663 73.3098 84.7411 72.0329C84.2158 70.7559 84.8252 69.295 86.1021 68.7698L88.0041 73.3939ZM96.3411 66.2309C97.713 66.0749 98.9516 67.0605 99.1076 68.4323C99.2636 69.8042 98.278 71.0428 96.9062 71.1989L96.3411 66.2309ZM106.911 71.0298C105.535 70.9186 104.509 69.7128 104.62 68.3366C104.732 66.9604 105.937 65.9349 107.314 66.0461L106.911 71.0298ZM118.171 68.1459C119.485 68.5674 120.21 69.975 119.788 71.2898C119.366 72.6046 117.959 73.3287 116.644 72.9071L118.171 68.1459ZM125.428 77.1433C124.287 76.3662 123.992 74.811 124.769 73.6698C125.546 72.5286 127.102 72.2334 128.243 73.0106L125.428 77.1433ZM136.428 80.7066C137.276 81.7965 137.08 83.3672 135.99 84.2149C134.9 85.0626 133.329 84.8662 132.482 83.7764L136.428 80.7066ZM137.351 92.2782C136.825 91.0017 137.433 89.5403 138.709 89.014C139.986 88.4877 141.447 89.0958 141.973 90.3723L137.351 92.2782ZM145.02 100.567C145.298 101.919 144.427 103.241 143.074 103.519C141.722 103.796 140.4 102.925 140.122 101.573L145.02 100.567ZM141.353 110.972C141.268 109.594 142.315 108.407 143.693 108.322C145.071 108.236 146.258 109.284 146.344 110.662L141.353 110.972ZM146.357 120.79C146.28 122.169 145.1 123.224 143.721 123.146C142.343 123.069 141.288 121.888 141.365 120.51L146.357 120.79ZM140.336 130.039C140.551 128.675 141.831 127.744 143.195 127.959C144.559 128.174 145.49 129.454 145.275 130.818L140.336 130.039ZM143.265 140.671C142.932 142.011 141.575 142.826 140.235 142.493C138.895 142.159 138.08 140.802 138.414 139.462L143.265 140.671ZM135.709 148.714C136.148 147.405 137.565 146.7 138.874 147.139C140.184 147.578 140.889 148.995 140.45 150.304L135.709 148.714ZM136.903 159.682C136.366 160.954 134.9 161.551 133.628 161.014C132.356 160.477 131.76 159.011 132.296 157.739L136.903 159.682ZM128.212 166.475C128.845 165.248 130.353 164.766 131.58 165.398C132.807 166.031 133.289 167.539 132.657 168.766L128.212 166.475ZM127.683 177.501C126.948 178.67 125.405 179.021 124.236 178.286C123.067 177.551 122.716 176.008 123.451 174.839L127.683 177.501ZM117.954 182.659C118.811 181.577 120.384 181.395 121.466 182.252C122.548 183.11 122.73 184.682 121.872 185.764L117.954 182.659ZM114.793 193.578C113.817 194.555 112.234 194.556 111.257 193.58C110.28 192.604 110.279 191.021 111.255 190.045L114.793 193.578ZM103.55 197.149C104.603 196.256 106.181 196.385 107.074 197.438C107.967 198.491 107.837 200.069 106.784 200.962L103.55 197.149ZM98.1915 207.654C97.0677 208.456 95.5064 208.196 94.7042 207.072C93.9021 205.948 94.1628 204.387 95.2866 203.585L98.1915 207.654ZM86.5123 209.312C87.6987 208.606 89.233 208.995 89.9392 210.182C90.6454 211.368 90.2561 212.902 89.0696 213.609L86.5123 209.312ZM79.4892 218.794C78.2493 219.401 76.7517 218.889 76.1441 217.649C75.5365 216.409 76.0491 214.911 77.2889 214.304L79.4892 218.794ZM67.6935 218.546C68.9771 218.037 70.4301 218.665 70.9389 219.948C71.4478 221.232 70.8198 222.685 69.5363 223.194L67.6935 218.546ZM59.2966 226.815C57.9789 227.228 56.5765 226.494 56.1643 225.176C55.7521 223.858 56.4862 222.456 57.8039 222.043L59.2966 226.815ZM47.6567 224.827C49.0001 224.508 50.3477 225.339 50.6665 226.682C50.9854 228.025 50.1549 229.373 48.8115 229.692L47.6567 224.827ZM38.1812 231.846C36.8199 232.077 35.5295 231.16 35.2991 229.798C35.0687 228.437 35.9855 227.147 37.3469 226.916L38.1812 231.846ZM26.9128 228.354C28.2856 228.207 29.5181 229.2 29.6657 230.573C29.8132 231.945 28.82 233.178 27.4472 233.326L26.9128 228.354ZM16.6457 234.181C15.2669 234.253 14.0909 233.193 14.019 231.814C13.9471 230.436 15.0067 229.259 16.3855 229.188L16.6457 234.181ZM5.80975 229.488C7.19043 229.478 8.31836 230.588 8.32904 231.969C8.33975 233.35 7.22916 234.477 5.84848 234.488L5.80975 229.488ZM275.723 4.14337C274.924 5.69737 274.138 7.21136 273.366 8.6868L268.936 6.36707C269.703 4.90298 270.483 3.39999 271.277 1.85663L275.723 4.14337ZM268.546 17.7017C266.811 20.8752 265.144 23.8433 263.537 26.6264L259.207 24.1262C260.793 21.3794 262.441 18.4453 264.158 15.3032L268.546 17.7017ZM258.283 35.4216C256.337 38.5611 254.478 41.4221 252.689 44.0506L248.556 41.2371C250.301 38.6722 252.121 35.8714 254.033 32.7874L258.283 35.4216ZM246.655 52.4089C244.376 55.3709 242.193 57.989 240.058 60.3857L236.324 57.0596C238.381 54.7512 240.488 52.2257 242.691 49.3604L246.655 52.4089ZM232.916 67.8584C231.686 69.0689 230.456 70.2482 229.22 71.4201L225.78 67.7915C227.003 66.6324 228.208 65.4758 229.41 64.2939L232.916 67.8584ZM229.171 71.4656C227.889 72.6169 226.59 73.7683 225.274 74.918L221.984 71.1534C223.282 70.0183 224.565 68.882 225.829 67.746L229.171 71.4656ZM217.342 81.6709C214.683 83.8764 211.978 86.0633 209.242 88.2188L206.148 84.2912C208.851 82.1617 211.523 80.0012 214.15 77.8224L217.342 81.6709ZM200.978 94.5604C198.181 96.6505 195.366 98.6965 192.548 100.685L189.665 96.6004C192.445 94.6384 195.223 92.619 197.985 90.555L200.978 94.5604ZM183.942 106.573C180.991 108.526 178.051 110.403 175.141 112.187L172.528 107.925C175.385 106.173 178.276 104.327 181.183 102.403L183.942 106.573ZM166.117 117.471C162.955 119.23 159.849 120.856 156.822 122.326L154.637 117.828C157.571 116.403 160.595 114.821 163.686 113.102L166.117 117.471ZM147.17 126.578C145.466 127.243 143.798 127.845 142.17 128.376L140.617 123.624C142.147 123.124 143.726 122.555 145.351 121.921L147.17 126.578ZM142.17 128.376C140.12 129.046 138.11 129.635 136.134 130.148L134.878 125.308C136.751 124.822 138.663 124.262 140.617 123.624L142.17 128.376ZM123.741 132.466C119.412 132.954 115.226 133.087 111.12 132.933L111.307 127.937C115.176 128.081 119.111 127.957 123.18 127.497L123.741 132.466ZM98.6117 131.625C96.5612 131.283 94.5172 130.886 92.4717 130.444L93.5283 125.556C95.5057 125.984 97.4709 126.366 99.4336 126.693L98.6117 131.625ZM92.4717 130.444C90.4171 129.999 88.4947 129.434 86.6988 128.757L88.4638 124.079C90.0155 124.664 91.7001 125.161 93.5283 125.556L92.4717 130.444ZM76.2964 122.434C73.1938 119.562 70.8853 116.175 69.2179 112.492L73.7729 110.43C75.1969 113.575 77.1331 116.395 79.6924 118.764L76.2964 122.434ZM66.0024 100.966C65.7322 99.0249 65.5709 97.0585 65.5016 95.088L70.4984 94.912C70.5624 96.7281 70.7105 98.5223 70.9547 100.277L66.0024 100.966ZM65.5016 95.088C65.4375 93.2706 65.5916 91.53 65.9314 89.8704L70.8298 90.8731C70.5689 92.1475 70.4485 93.4925 70.4984 94.912L65.5016 95.088ZM70.242 80.4956C72.3017 77.744 74.8392 75.4321 77.471 73.5431L80.3866 77.605C78.0751 79.2641 75.936 81.2326 74.2447 83.492L70.242 80.4956ZM86.1021 68.7698C87.8064 68.0687 89.4243 67.5364 90.8523 67.1802L92.0627 72.0314C90.8974 72.3222 89.5109 72.7741 88.0041 73.3939L86.1021 68.7698ZM90.8523 67.1802C92.1856 66.8475 94.0712 66.4891 96.3411 66.2309L96.9062 71.1989C94.8308 71.4349 93.1623 71.7571 92.0627 72.0314L90.8523 67.1802ZM107.314 66.0461C110.76 66.3246 114.462 66.9569 118.171 68.1459L116.644 72.9071C113.361 71.8546 110.045 71.2831 106.911 71.0298L107.314 66.0461ZM128.243 73.0106C131.194 75.0203 133.973 77.5495 136.428 80.7066L132.482 83.7764C130.359 81.0477 127.967 78.8724 125.428 77.1433L128.243 73.0106ZM141.973 90.3723C142.65 92.0136 143.259 93.7545 143.795 95.6001L138.992 96.9925C138.506 95.3144 137.956 93.7453 137.351 92.2782L141.973 90.3723ZM143.795 95.6001C144.269 97.2366 144.676 98.8936 145.02 100.567L140.122 101.573C139.804 100.025 139.429 98.497 138.992 96.9925L143.795 95.6001ZM146.344 110.662C146.552 114.015 146.548 117.4 146.357 120.79L141.365 120.51C141.545 117.301 141.548 114.113 141.353 110.972L146.344 110.662ZM145.275 130.818C144.752 134.131 144.074 137.424 143.265 140.671L138.414 139.462C139.189 136.349 139.837 133.199 140.336 130.039L145.275 130.818ZM140.45 150.304C139.373 153.514 138.183 156.65 136.903 159.682L132.296 157.739C133.528 154.819 134.674 151.802 135.709 148.714L140.45 150.304ZM132.657 168.766C131.067 171.849 129.399 174.773 127.683 177.501L123.451 174.839C125.087 172.237 126.686 169.436 128.212 166.475L132.657 168.766ZM121.872 185.764C120.774 187.149 119.669 188.447 118.564 189.647L114.887 186.259C115.901 185.158 116.926 183.955 117.954 182.659L121.872 185.764ZM118.564 189.647C117.32 190.997 116.062 192.307 114.793 193.578L111.255 190.045C112.477 188.821 113.688 187.56 114.887 186.259L118.564 189.647ZM106.784 200.962C103.957 203.36 101.088 205.586 98.1915 207.654L95.2866 203.585C98.0723 201.596 100.831 199.455 103.55 197.149L106.784 200.962ZM89.0696 213.609C85.8856 215.504 82.6863 217.227 79.4892 218.794L77.2889 214.304C80.3687 212.794 83.4487 211.135 86.5123 209.312L89.0696 213.609ZM69.5363 223.194C66.0915 224.559 62.6708 225.76 59.2966 226.815L57.8039 222.043C61.066 221.023 64.3696 219.863 67.6935 218.546L69.5363 223.194ZM48.8115 229.692C45.1706 230.556 41.6168 231.265 38.1812 231.846L37.3469 226.916C40.6827 226.352 44.1293 225.664 47.6567 224.827L48.8115 229.692ZM27.4472 233.326C23.6012 233.739 19.9815 234.007 16.6457 234.181L16.3855 229.188C19.6423 229.018 23.1696 228.756 26.9128 228.354L27.4472 233.326ZM5.84848 234.488C3.84042 234.504 2.04404 234.499 0.508789 234.499V229.499C2.05817 229.499 3.82678 229.504 5.80975 229.488L5.84848 234.488Z" fill="#A06AA5"/>
</svg>
