<svg width="110" height="22" viewBox="0 0 110 22" fill="none" xmlns="http://www.w3.org/2000/svg">
<path d="M9.44829 6.61833C10.0369 5.15103 10.3311 4.41739 10.8093 4.31571C10.935 4.28897 11.0649 4.28897 11.1906 4.31571C11.6687 4.41739 11.963 5.15103 12.5516 6.61833C12.8863 7.45275 13.0536 7.86997 13.3668 8.15373C13.4546 8.23333 13.55 8.30422 13.6515 8.3654C14.0134 8.58355 14.4652 8.62401 15.3689 8.70494C16.8986 8.84194 17.6634 8.91044 17.897 9.34653C17.9454 9.43685 17.9783 9.53464 17.9943 9.63584C18.0717 10.1244 17.5094 10.636 16.3849 11.6591L16.0726 11.9432C15.5469 12.4215 15.284 12.6607 15.1319 12.9592C15.0407 13.1382 14.9796 13.331 14.9509 13.5299C14.9031 13.8615 14.9801 14.2084 15.1341 14.9023L15.1891 15.1502C15.4652 16.3946 15.6032 17.0168 15.4309 17.3227C15.2761 17.5974 14.991 17.7733 14.676 17.7883C14.3254 17.8051 13.8313 17.4025 12.8432 16.5973C12.1921 16.0668 11.8666 15.8015 11.5053 15.6979C11.175 15.6032 10.8248 15.6032 10.4946 15.6979C10.1333 15.8015 9.80774 16.0668 9.15672 16.5973C8.16857 17.4025 7.6745 17.8051 7.32386 17.7883C7.00889 17.7733 6.72377 17.5974 6.56897 17.3227C6.39664 17.0168 6.53469 16.3946 6.81079 15.1502L6.8658 14.9023C7.01975 14.2084 7.09673 13.8615 7.04896 13.5299C7.02031 13.331 6.95915 13.1382 6.86794 12.9592C6.71589 12.6607 6.45302 12.4215 5.92727 11.9432L5.61498 11.6591C4.49043 10.636 3.92815 10.1244 4.00558 9.63584C4.02162 9.53464 4.05451 9.43685 4.10288 9.34653C4.33645 8.91044 5.1013 8.84194 6.631 8.70494C7.53463 8.62401 7.98645 8.58355 8.34839 8.3654C8.4499 8.30422 8.54525 8.23333 8.63308 8.15373C8.94623 7.86997 9.11358 7.45275 9.44829 6.61833Z" fill="#FDC557" stroke="#FDC557" stroke-width="0.637681"/>
<path d="M31.4483 6.61833C32.0369 5.15103 32.3311 4.41739 32.8093 4.31571C32.935 4.28897 33.0649 4.28897 33.1906 4.31571C33.6687 4.41739 33.963 5.15103 34.5516 6.61833C34.8863 7.45275 35.0536 7.86997 35.3668 8.15373C35.4546 8.23333 35.55 8.30422 35.6515 8.3654C36.0134 8.58355 36.4652 8.62401 37.3689 8.70494C38.8986 8.84194 39.6634 8.91044 39.897 9.34653C39.9454 9.43685 39.9783 9.53464 39.9943 9.63584C40.0717 10.1244 39.5094 10.636 38.3849 11.6591L38.0726 11.9432C37.5469 12.4215 37.284 12.6607 37.1319 12.9592C37.0407 13.1382 36.9796 13.331 36.9509 13.5299C36.9031 13.8615 36.9801 14.2084 37.1341 14.9023L37.1891 15.1502C37.4652 16.3946 37.6032 17.0168 37.4309 17.3227C37.2761 17.5974 36.991 17.7733 36.676 17.7883C36.3254 17.8051 35.8313 17.4025 34.8432 16.5973C34.1921 16.0668 33.8666 15.8015 33.5053 15.6979C33.175 15.6032 32.8248 15.6032 32.4946 15.6979C32.1333 15.8015 31.8077 16.0668 31.1567 16.5973C30.1686 17.4025 29.6745 17.8051 29.3239 17.7883C29.0089 17.7733 28.7238 17.5974 28.569 17.3227C28.3966 17.0168 28.5347 16.3946 28.8108 15.1502L28.8658 14.9023C29.0198 14.2084 29.0967 13.8615 29.049 13.5299C29.0203 13.331 28.9592 13.1382 28.8679 12.9592C28.7159 12.6607 28.453 12.4215 27.9273 11.9432L27.615 11.6591C26.4904 10.636 25.9281 10.1244 26.0056 9.63584C26.0216 9.53464 26.0545 9.43685 26.1029 9.34653C26.3364 8.91044 27.1013 8.84194 28.631 8.70494C29.5346 8.62401 29.9865 8.58355 30.3484 8.3654C30.4499 8.30422 30.5452 8.23333 30.6331 8.15373C30.9462 7.86997 31.1136 7.45275 31.4483 6.61833Z" fill="#FDC557" stroke="#FDC557" stroke-width="0.637681"/>
<path d="M53.4483 6.61833C54.0369 5.15103 54.3311 4.41739 54.8093 4.31571C54.935 4.28897 55.0649 4.28897 55.1906 4.31571C55.6687 4.41739 55.963 5.15103 56.5516 6.61833C56.8863 7.45275 57.0536 7.86997 57.3668 8.15373C57.4546 8.23333 57.55 8.30422 57.6515 8.3654C58.0134 8.58355 58.4652 8.62401 59.3689 8.70494C60.8986 8.84194 61.6634 8.91044 61.897 9.34653C61.9454 9.43685 61.9783 9.53464 61.9943 9.63584C62.0717 10.1244 61.5094 10.636 60.3849 11.6591L60.0726 11.9432C59.5469 12.4215 59.284 12.6607 59.1319 12.9592C59.0407 13.1382 58.9796 13.331 58.9509 13.5299C58.9031 13.8615 58.9801 14.2084 59.1341 14.9023L59.1891 15.1502C59.4652 16.3946 59.6032 17.0168 59.4309 17.3227C59.2761 17.5974 58.991 17.7733 58.676 17.7883C58.3254 17.8051 57.8313 17.4025 56.8432 16.5973C56.1921 16.0668 55.8666 15.8015 55.5053 15.6979C55.175 15.6032 54.8248 15.6032 54.4946 15.6979C54.1333 15.8015 53.8077 16.0668 53.1567 16.5973C52.1686 17.4025 51.6745 17.8051 51.3239 17.7883C51.0089 17.7733 50.7238 17.5974 50.569 17.3227C50.3966 17.0168 50.5347 16.3946 50.8108 15.1502L50.8658 14.9023C51.0198 14.2084 51.0967 13.8615 51.049 13.5299C51.0203 13.331 50.9592 13.1382 50.8679 12.9592C50.7159 12.6607 50.453 12.4215 49.9273 11.9432L49.615 11.6591C48.4904 10.636 47.9281 10.1244 48.0056 9.63584C48.0216 9.53464 48.0545 9.43685 48.1029 9.34653C48.3364 8.91044 49.1013 8.84194 50.631 8.70494C51.5346 8.62401 51.9865 8.58355 52.3484 8.3654C52.4499 8.30422 52.5452 8.23333 52.6331 8.15373C52.9462 7.86997 53.1136 7.45275 53.4483 6.61833Z" fill="#FDC557" stroke="#FDC557" stroke-width="0.637681"/>
<path d="M75.4483 6.61833C76.0369 5.15103 76.3311 4.41739 76.8093 4.31571C76.935 4.28897 77.0649 4.28897 77.1906 4.31571C77.6687 4.41739 77.963 5.15103 78.5516 6.61833C78.8863 7.45275 79.0536 7.86997 79.3668 8.15373C79.4546 8.23333 79.55 8.30422 79.6515 8.3654C80.0134 8.58355 80.4652 8.62401 81.3689 8.70494C82.8986 8.84194 83.6634 8.91044 83.897 9.34653C83.9454 9.43685 83.9783 9.53464 83.9943 9.63584C84.0717 10.1244 83.5094 10.636 82.3849 11.6591L82.0726 11.9432C81.5469 12.4215 81.284 12.6607 81.1319 12.9592C81.0407 13.1382 80.9796 13.331 80.9509 13.5299C80.9031 13.8615 80.9801 14.2084 81.1341 14.9023L81.1891 15.1502C81.4652 16.3946 81.6032 17.0168 81.4309 17.3227C81.2761 17.5974 80.991 17.7733 80.676 17.7883C80.3254 17.8051 79.8313 17.4025 78.8432 16.5973C78.1921 16.0668 77.8666 15.8015 77.5053 15.6979C77.175 15.6032 76.8248 15.6032 76.4946 15.6979C76.1333 15.8015 75.8077 16.0668 75.1567 16.5973C74.1686 17.4025 73.6745 17.8051 73.3239 17.7883C73.0089 17.7733 72.7238 17.5974 72.569 17.3227C72.3966 17.0168 72.5347 16.3946 72.8108 15.1502L72.8658 14.9023C73.0198 14.2084 73.0967 13.8615 73.049 13.5299C73.0203 13.331 72.9592 13.1382 72.8679 12.9592C72.7159 12.6607 72.453 12.4215 71.9273 11.9432L71.615 11.6591C70.4904 10.636 69.9281 10.1244 70.0056 9.63584C70.0216 9.53464 70.0545 9.43685 70.1029 9.34653C70.3364 8.91044 71.1013 8.84194 72.631 8.70494C73.5346 8.62401 73.9865 8.58355 74.3484 8.3654C74.4499 8.30422 74.5452 8.23333 74.6331 8.15373C74.9462 7.86997 75.1136 7.45275 75.4483 6.61833Z" fill="#FDC557" stroke="#FDC557" stroke-width="0.637681"/>
<path d="M97.4483 6.61833C98.0369 5.15103 98.3311 4.41739 98.8093 4.31571C98.935 4.28897 99.0649 4.28897 99.1906 4.31571C99.6687 4.41739 99.963 5.15103 100.552 6.61833C100.886 7.45275 101.054 7.86997 101.367 8.15373C101.455 8.23333 101.55 8.30422 101.651 8.3654C102.013 8.58355 102.465 8.62401 103.369 8.70494C104.899 8.84194 105.663 8.91044 105.897 9.34653C105.945 9.43685 105.978 9.53464 105.994 9.63584C106.072 10.1244 105.509 10.636 104.385 11.6591L104.073 11.9432C103.547 12.4215 103.284 12.6607 103.132 12.9592C103.041 13.1382 102.98 13.331 102.951 13.5299C102.903 13.8615 102.98 14.2084 103.134 14.9023L103.189 15.1502C103.465 16.3946 103.603 17.0168 103.431 17.3227C103.276 17.5974 102.991 17.7733 102.676 17.7883C102.325 17.8051 101.831 17.4025 100.843 16.5973C100.192 16.0668 99.8666 15.8015 99.5053 15.6979C99.175 15.6032 98.8248 15.6032 98.4946 15.6979C98.1333 15.8015 97.8077 16.0668 97.1567 16.5973C96.1686 17.4025 95.6745 17.8051 95.3239 17.7883C95.0089 17.7733 94.7238 17.5974 94.569 17.3227C94.3966 17.0168 94.5347 16.3946 94.8108 15.1502L94.8658 14.9023C95.0198 14.2084 95.0967 13.8615 95.049 13.5299C95.0203 13.331 94.9592 13.1382 94.8679 12.9592C94.7159 12.6607 94.453 12.4215 93.9273 11.9432L93.615 11.6591C92.4904 10.636 91.9281 10.1244 92.0056 9.63584C92.0216 9.53464 92.0545 9.43685 92.1029 9.34653C92.3364 8.91044 93.1013 8.84194 94.631 8.70494C95.5346 8.62401 95.9865 8.58355 96.3484 8.3654C96.4499 8.30422 96.5452 8.23333 96.6331 8.15373C96.9462 7.86997 97.1136 7.45275 97.4483 6.61833Z" fill="#FDC557" stroke="#FDC557" stroke-width="0.637681"/>
</svg>
